<svg preserveAspectRatio="none" width="100%" height="100%" overflow="visible" viewBox="0 0 28 28" fill="none" xmlns="http://www.w3.org/2000/svg">
<path d="M14 21C17.866 21 21 17.866 21 14C21 10.134 17.866 7 14 7C10.134 7 7 10.134 7 14C7 17.866 10.134 21 14 21Z" stroke="black" stroke-width="2"/>
<path d="M14 2V8M14 20V26M2 14H8M20 14H26" stroke="black" stroke-width="2" stroke-linecap="round"/>
<path d="M14 16C15.1046 16 16 15.1046 16 14C16 12.8954 15.1046 12 14 12C12.8954 12 12 12.8954 12 14C12 15.1046 12.8954 16 14 16Z" fill="black"/>
</svg>
